<?xml version="1.0" standalone="no"?>
<!DOCTYPE svg PUBLIC "-//W3C//DTD SVG 20010904//EN"
 "http://www.w3.org/TR/2001/REC-SVG-20010904/DTD/svg10.dtd">
<svg version="1.0" xmlns="http://www.w3.org/2000/svg"
 width="388.000000pt" height="384.000000pt" viewBox="0 0 388.000000 384.000000"
 preserveAspectRatio="xMidYMid meet">

<g transform="translate(0.000000,384.000000) scale(0.100000,-0.100000)"
fill="#000000" stroke="none">
<path d="M1758 3827 c9 -4 -10 -5 -43 -3 -43 4 -54 2 -40 -5 15 -7 7 -8 -30
-5 -36 4 -45 2 -30 -5 15 -7 6 -8 -30 -5 -27 3 -42 2 -32 -2 12 -5 -11 -15
-73 -30 -318 -77 -655 -268 -894 -506 -300 -301 -466 -615 -548 -1041 -17 -91
-21 -152 -22 -350 -1 -132 1 -229 4 -215 5 19 8 13 14 -30 4 -30 16 -93 27
-139 10 -46 17 -94 14 -105 -4 -14 -3 -17 2 -9 11 16 57 -122 47 -139 -4 -6
-3 -8 4 -4 13 8 26 -29 16 -45 -4 -7 -3 -9 3 -6 13 8 58 -87 48 -104 -5 -7 -4
-10 3 -5 14 8 35 -30 28 -50 -3 -8 -2 -13 3 -10 5 4 21 -14 35 -38 29 -50 32
-61 14 -50 -8 4 -10 3 -5 -2 5 -5 14 -9 20 -9 5 0 12 -6 15 -14 3 -9 0 -11 -9
-6 -8 5 -11 4 -6 -1 5 -5 14 -9 20 -9 5 0 12 -6 15 -14 3 -9 0 -11 -9 -6 -8 5
-11 4 -6 -1 5 -5 14 -9 19 -9 6 0 13 -6 16 -14 3 -9 0 -11 -9 -6 -8 5 -11 4
-6 -1 5 -5 14 -9 19 -9 6 0 13 -6 16 -14 3 -9 0 -11 -9 -5 -12 7 -12 5 0 -9
16 -20 26 -23 15 -4 -5 8 -2 8 9 -2 20 -16 23 -36 5 -25 -9 5 -9 2 1 -9 16
-20 26 -23 15 -4 -5 8 -2 8 9 -2 20 -16 23 -36 5 -25 -7 4 -2 -5 11 -19 30
-33 42 -36 15 -4 -17 20 -16 20 9 -2 27 -25 37 -48 14 -35 -6 4 33 -39 88 -95
95 -96 114 -114 100 -91 -13 21 13 9 36 -17 l24 -28 -25 20 -25 20 24 -28 c24
-27 38 -36 26 -17 -12 19 12 10 31 -12 19 -22 19 -23 -1 -8 -18 14 -19 14 -7
-2 8 -9 19 -15 25 -12 7 2 26 -8 42 -22 17 -14 24 -22 16 -18 -9 4 -12 3 -7
-4 4 -6 13 -9 20 -6 8 3 17 0 22 -7 5 -8 3 -10 -6 -4 -8 5 -11 4 -6 -3 4 -6
13 -9 20 -6 8 3 17 0 22 -7 5 -8 3 -10 -6 -4 -8 5 -11 4 -6 -3 4 -6 13 -9 20
-6 8 3 17 0 22 -7 5 -8 3 -10 -6 -4 -8 5 -11 4 -6 -3 4 -6 12 -9 19 -6 7 2 21
-3 32 -12 11 -8 14 -12 6 -8 -9 4 -12 3 -7 -4 4 -6 14 -8 23 -5 11 4 14 3 9
-5 -5 -8 -1 -10 10 -5 12 4 15 3 10 -5 -5 -8 -1 -10 10 -5 12 4 15 3 10 -5 -4
-8 -2 -10 8 -6 8 3 23 -3 34 -14 11 -11 23 -18 26 -14 3 3 6 0 6 -7 0 -7 4
-10 9 -6 14 8 61 -16 54 -28 -4 -6 0 -8 10 -4 10 3 17 2 17 -3 0 -5 7 -6 17
-3 11 4 14 3 9 -5 -5 -8 -2 -10 8 -6 9 4 16 1 16 -6 0 -7 7 -10 16 -6 8 3 13
2 10 -2 -7 -12 101 -45 116 -36 6 4 8 3 5 -3 -6 -10 98 -37 248 -65 95 -18
577 -18 582 -1 3 8 15 10 34 6 18 -3 29 -1 29 5 0 8 11 9 32 5 23 -4 29 -3 24
6 -6 9 0 10 20 5 21 -5 25 -4 19 6 -6 10 -2 11 19 6 20 -5 26 -4 20 5 -5 9 1
10 20 5 19 -5 26 -3 21 4 -5 7 2 9 21 4 20 -5 25 -4 19 6 -5 9 -2 10 15 5 16
-5 20 -4 15 5 -5 9 -1 10 15 5 16 -5 20 -4 15 5 -5 9 -1 10 15 5 16 -5 20 -4
15 5 -5 9 -1 10 15 5 14 -4 20 -3 16 3 -8 13 19 23 41 15 10 -4 14 -2 10 4 -9
14 18 24 40 16 10 -4 14 -2 10 4 -7 12 40 36 54 28 5 -4 9 -1 9 6 0 7 3 10 6
7 3 -4 15 3 26 14 11 11 26 17 34 14 10 -4 12 -2 8 6 -5 8 -2 9 10 5 9 -4 15
-3 12 2 -3 4 6 13 20 20 20 9 24 9 18 -1 -4 -7 4 -1 19 15 27 28 43 36 32 14
-4 -6 3 -1 15 13 12 14 19 18 15 10 -4 -8 3 -4 15 10 12 14 19 18 15 10 -4 -8
2 -6 12 5 10 12 27 27 37 35 17 13 19 13 11 1 -22 -37 132 94 245 208 107 109
240 272 233 286 -2 3 5 13 15 23 20 20 98 157 104 182 2 8 8 20 14 27 18 19
85 193 79 204 -4 5 -2 9 3 9 13 0 45 117 36 132 -5 7 -3 8 6 3 10 -6 12 -1 8
19 -3 14 -1 26 5 26 5 0 7 9 4 20 -3 11 -1 20 5 20 5 0 7 14 4 30 -2 17 0 28
5 24 5 -3 10 12 11 33 1 21 3 52 4 68 1 17 5 38 9 48 8 20 -1 429 -11 489 -3
22 -11 35 -16 32 -7 -4 -8 5 -3 26 5 24 4 31 -5 25 -9 -6 -10 1 -5 25 5 23 4
31 -4 25 -8 -5 -10 2 -6 22 5 22 4 25 -5 13 -9 -12 -10 -9 -5 13 4 21 3 27 -6
21 -9 -5 -10 1 -5 20 5 20 3 26 -5 21 -8 -5 -9 -1 -4 15 5 14 3 20 -3 16 -13
-8 -53 109 -45 131 4 10 2 14 -4 10 -11 -7 -38 42 -28 51 3 3 5 -1 5 -8 0 -7
2 -11 5 -8 8 8 -6 39 -15 33 -11 -7 -22 24 -13 37 4 7 1 8 -7 3 -10 -6 -12 -4
-7 9 5 11 3 15 -5 10 -8 -5 -9 -2 -5 10 5 11 3 15 -5 10 -8 -5 -9 -2 -5 10 5
11 3 15 -5 10 -8 -5 -9 -2 -5 10 4 10 3 15 -3 11 -12 -8 -43 52 -34 67 4 7 3
8 -4 4 -12 -7 -36 30 -27 44 3 5 0 12 -6 16 -8 5 -9 3 -4 -6 6 -9 4 -11 -4 -6
-7 5 -10 14 -7 22 3 7 0 16 -6 20 -7 5 -8 2 -3 -7 8 -12 6 -12 -8 0 -20 16
-23 36 -4 25 7 -4 9 -3 4 2 -5 5 -14 9 -20 9 -5 0 -12 6 -15 14 -3 8 0 11 7 7
17 -11 13 0 -6 15 -15 12 -16 12 -8 -1 5 -9 0 -8 -13 4 -26 23 -30 45 -4 25
15 -13 16 -12 3 4 -8 9 -16 15 -19 12 -7 -7 -42 25 -42 38 0 6 10 2 23 -9 20
-17 20 -17 -2 8 -13 15 -27 25 -31 23 -3 -2 -35 26 -71 62 -273 279 -619 474
-1004 567 -59 14 -92 25 -80 28 11 3 -5 4 -35 2 -41 -3 -49 -1 -30 5 18 6 6 8
-40 5 -36 -2 -57 -1 -48 3 9 5 -70 8 -177 8 -107 0 -187 -3 -177 -8z m497
-265 c690 -153 1216 -677 1349 -1344 67 -333 28 -660 -115 -981 -160 -357
-499 -689 -866 -846 -491 -210 -980 -196 -1448 40 -371 188 -691 546 -825 924
-149 422 -127 849 64 1260 131 280 374 551 646 722 183 114 418 202 635 239
120 20 443 12 560 -14z m-1685 -2987 c47 -47 82 -85 80 -85 -3 0 -43 38 -90
85 -47 47 -82 85 -80 85 3 0 43 -38 90 -85z"/>
<path d="M1878 3346 c-100 -27 -168 -117 -168 -222 0 -70 41 -148 99 -189 39
-28 50 -30 126 -30 77 0 87 2 127 30 57 41 100 124 100 194 -2 149 -140 256
-284 217z"/>
<path d="M758 2794 c-74 -40 -76 -169 -3 -202 19 -9 142 -12 446 -12 461 0
463 0 494 60 29 57 10 121 -45 154 -25 14 -77 16 -447 16 -350 -1 -422 -3
-445 -16z"/>
<path d="M2209 2787 c-48 -32 -64 -84 -43 -138 29 -70 21 -69 499 -69 478 0
479 0 510 67 21 44 9 96 -31 134 l-26 24 -437 3 -437 3 -35 -24z"/>
<path d="M1861 2694 c-17 -14 -35 -42 -41 -62 -15 -55 -13 -1216 3 -1262 7
-19 27 -44 46 -57 60 -40 126 -26 168 36 l23 34 0 626 c0 602 -1 627 -19 655
-41 62 -126 76 -180 30z"/>
<path d="M788 2303 c-114 -238 -238 -505 -238 -515 0 -4 47 -8 105 -8 125 0
95 -34 239 269 55 117 106 213 111 212 6 -1 56 -97 112 -214 56 -117 109 -224
117 -239 15 -28 16 -28 121 -28 60 0 105 4 105 10 0 14 -123 282 -227 493
l-93 187 -135 0 -136 0 -81 -167z"/>
<path d="M2696 2398 c-19 -40 -65 -138 -104 -218 -114 -236 -182 -382 -182
-391 0 -5 50 -9 111 -9 l110 0 36 78 c20 42 74 156 120 252 l85 175 114 -235
c63 -129 118 -242 122 -250 7 -12 34 -16 120 -18 l111 -3 -43 98 c-24 54 -98
209 -164 346 l-120 247 -141 0 -142 0 -33 -72z"/>
<path d="M465 1623 c23 -97 166 -259 283 -321 151 -81 352 -83 505 -6 134 68
264 211 301 332 l7 22 -551 0 -552 0 7 -27z"/>
<path d="M2320 1640 c0 -6 16 -43 36 -83 70 -139 231 -265 385 -302 73 -17
193 -19 259 -5 104 23 227 96 300 178 41 46 130 194 130 216 0 3 -250 6 -555
6 -372 0 -555 -3 -555 -10z"/>
<path d="M1491 1144 c-68 -57 -56 -166 21 -193 35 -12 346 -14 657 -4 192 6
205 8 230 29 22 19 26 30 26 79 0 51 -3 59 -33 86 l-32 29 -419 0 -419 0 -31
-26z"/>
<path d="M1164 801 c-60 -37 -70 -129 -19 -180 l25 -26 750 -3 c835 -3 807 -5
835 62 19 45 19 70 0 106 -32 62 -2 60 -817 60 -709 0 -744 -1 -774 -19z"/>
<path d="M3080 3476 c0 -2 8 -10 18 -17 15 -13 16 -12 3 4 -13 16 -21 21 -21
13z"/>
<path d="M739 3433 c-13 -16 -12 -17 4 -4 9 7 17 15 17 17 0 8 -8 3 -21 -13z"/>
<path d="M3120 3446 c0 -2 8 -10 18 -17 15 -13 16 -12 3 4 -13 16 -21 21 -21
13z"/>
<path d="M694 3398 l-19 -23 23 19 c21 18 27 26 19 26 -2 0 -12 -10 -23 -22z"/>
<path d="M3180 3395 c13 -14 26 -25 28 -25 3 0 -5 11 -18 25 -13 14 -26 25
-28 25 -3 0 5 -11 18 -25z"/>
<path d="M555 3268 l-100 -103 103 100 c56 55 102 101 102 102 0 8 -12 -4
-105 -99z"/>
<path d="M3315 3270 c55 -55 102 -100 105 -100 2 0 -40 45 -95 100 -55 55
-102 100 -105 100 -2 0 40 -45 95 -100z"/>
<path d="M429 3133 l-24 -28 28 24 c25 23 32 31 24 31 -2 0 -14 -12 -28 -27z"/>
<path d="M389 3083 c-13 -16 -12 -17 4 -4 9 7 17 15 17 17 0 8 -8 3 -21 -13z"/>
<path d="M359 3043 c-13 -16 -12 -17 4 -4 9 7 17 15 17 17 0 8 -8 3 -21 -13z"/>
<path d="M3630 2860 c6 -11 13 -20 16 -20 2 0 0 9 -6 20 -6 11 -13 20 -16 20
-2 0 0 -9 6 -20z"/>
<path d="M31 2294 c0 -11 3 -14 6 -6 3 7 2 16 -1 19 -3 4 -6 -2 -5 -13z"/>
<path d="M21 2244 c0 -11 3 -14 6 -6 3 7 2 16 -1 19 -3 4 -6 -2 -5 -13z"/>
<path d="M11 2174 c0 -11 3 -14 6 -6 3 7 2 16 -1 19 -3 4 -6 -2 -5 -13z"/>
<path d="M2 2080 c0 -19 2 -27 5 -17 2 9 2 25 0 35 -3 9 -5 1 -5 -18z"/>
<path d="M2 1760 c0 -19 2 -27 5 -17 2 9 2 25 0 35 -3 9 -5 1 -5 -18z"/>
<path d="M21 1594 c0 -11 3 -14 6 -6 3 7 2 16 -1 19 -3 4 -6 -2 -5 -13z"/>
<path d="M31 1544 c0 -11 3 -14 6 -6 3 7 2 16 -1 19 -3 4 -6 -2 -5 -13z"/>
<path d="M41 1494 c0 -11 3 -14 6 -6 3 7 2 16 -1 19 -3 4 -6 -2 -5 -13z"/>
<path d="M150 1165 c0 -5 5 -17 10 -25 5 -8 10 -10 10 -5 0 6 -5 17 -10 25 -5
8 -10 11 -10 5z"/>
<path d="M240 980 c6 -11 13 -20 16 -20 2 0 0 9 -6 20 -6 11 -13 20 -16 20 -2
0 0 -9 6 -20z"/>
<path d="M770 386 c0 -2 8 -10 18 -17 15 -13 16 -12 3 4 -13 16 -21 21 -21 13z"/>
</g>
</svg>
